<svg xmlns="http://www.w3.org/2000/svg" viewBox="0 0 840 360" width="840" height="360">
  <defs>
    <style>
      @keyframes card-rise { 0%,100%{opacity:1} }
      @keyframes cursor-blink { 0%,100%{opacity:1} 50%{opacity:0} }
      text { font-family: 'Segoe UI', system-ui, sans-serif; }
      .mono { font-family: 'SFMono-Regular', Consolas, monospace; }
      .card { fill:#12161d; stroke:#2b323b; stroke-width:1; }
      .clabel { font-size:8.5px; fill:#6e7681; }
      .ctitle { font-weight:700; fill:#e6edf3; letter-spacing:0.4px; }
      .pill { fill: currentColor; fill-opacity:0.10; stroke: currentColor; stroke-opacity:0.45; stroke-width:0.9; }
      .pill2 { fill: currentColor; fill-opacity:0.05; stroke: currentColor; stroke-opacity:0.28; stroke-width:0.9; }
      .ptxt { font-size:9px; text-anchor:middle; fill: currentColor; }
      .ptxt2 { font-size:9px; text-anchor:middle; fill: currentColor; opacity:0.85; }
      .note { font-size:8px; fill:#6e7681; }
    </style>
    <linearGradient id="a-indigo" x1="0" y1="0" x2="1" y2="0"><stop offset="0" stop-color="#818cf8"/><stop offset="1" stop-color="#a5b4fc"/></linearGradient>
    <linearGradient id="a-cyan" x1="0" y1="0" x2="1" y2="0"><stop offset="0" stop-color="#56d4dd"/><stop offset="1" stop-color="#22d3ee"/></linearGradient>
    <linearGradient id="a-blue" x1="0" y1="0" x2="1" y2="0"><stop offset="0" stop-color="#58a6ff"/><stop offset="1" stop-color="#79c0ff"/></linearGradient>
    <linearGradient id="a-violet" x1="0" y1="0" x2="1" y2="0"><stop offset="0" stop-color="#bc8cff"/><stop offset="1" stop-color="#d2a8ff"/></linearGradient>
    <linearGradient id="a-mint" x1="0" y1="0" x2="1" y2="0"><stop offset="0" stop-color="#56d4dd"/><stop offset="1" stop-color="#7ee7c7"/></linearGradient>
    <linearGradient id="a-purple" x1="0" y1="0" x2="1" y2="0"><stop offset="0" stop-color="#c084fc"/><stop offset="1" stop-color="#bc8cff"/></linearGradient>
  </defs>

  <g transform="translate(30, 0)">

  <!-- Header bar -->
  <text x="390" y="22" font-size="10" letter-spacing="2" fill="#8b949e" text-anchor="middle">TECHNOLOGY ARSENAL</text>
  <line x1="12" y1="30" x2="768" y2="30" stroke="#30363d" stroke-width="1" opacity="0.7"/>

  <!-- ===== CARD BACKGROUNDS ===== -->
  <rect class="card" x="12"  y="38"  width="354" height="140" rx="12"/>
  <rect class="card" x="376" y="38"  width="172" height="140" rx="12"/>
  <rect class="card" x="558" y="38"  width="210" height="140" rx="12"/>
  <rect class="card" x="12"  y="188" width="172" height="158" rx="12"/>
  <rect class="card" x="194" y="188" width="354" height="158" rx="12"/>
  <rect class="card" x="558" y="188" width="210" height="158" rx="12"/>

  <!-- accent top bars -->
  <rect x="24"  y="38" width="120" height="3" rx="1.5" fill="url(#a-indigo)"/>
  <rect x="388" y="38" width="90"  height="3" rx="1.5" fill="url(#a-cyan)"/>
  <rect x="570" y="38" width="110" height="3" rx="1.5" fill="url(#a-blue)"/>
  <rect x="24"  y="188" width="90"  height="3" rx="1.5" fill="url(#a-violet)"/>
  <rect x="206" y="188" width="130" height="3" rx="1.5" fill="url(#a-mint)"/>
  <rect x="570" y="188" width="110" height="3" rx="1.5" fill="url(#a-purple)"/>

  <!-- ===== CELL: EXECUTION LANGUAGES ===== -->
  <g style="color:#a5b4fc">
    <text x="30" y="60" class="mono clabel">// core.execution</text>
    <text x="30" y="74" class="ctitle" font-size="13">EXECUTION LANGUAGES</text>

    <rect class="pill" x="30" y="84" width="45" height="18" rx="5"/>
    <text x="52.5" y="97" class="ptxt">Rust</text>
    <rect class="pill" x="85" y="84" width="45" height="18" rx="5"/>
    <text x="107.5" y="97" class="ptxt">C++</text>
    <rect class="pill" x="140" y="84" width="35" height="18" rx="5"/>
    <text x="157.5" y="97" class="ptxt">Go</text>
    <rect class="pill" x="185" y="84" width="35" height="18" rx="5"/>
    <text x="202.5" y="97" class="ptxt">Zig</text>

    <rect class="pill2" x="30" y="110" width="55" height="18" rx="5"/>
    <text x="57.5" y="123" class="ptxt2">Python</text>
    <rect class="pill2" x="95" y="110" width="80" height="18" rx="5"/>
    <text x="135" y="123" class="ptxt2">TypeScript</text>
    <rect class="pill2" x="185" y="110" width="65" height="18" rx="5"/>
    <text x="217.5" y="123" class="ptxt2">Solidity</text>
    <rect class="pill2" x="260" y="110" width="40" height="18" rx="5"/>
    <text x="280" y="123" class="ptxt2">Bash</text>

    <text x="30" y="158" class="mono note">PRIMARY: Rust · BARE METAL EXECUTION</text>
    <text x="356" y="150" class="mono" font-size="9" fill="#a5b4fc" text-anchor="end" style="animation:cursor-blink 1.1s infinite">_</text>
  </g>

  <!-- ===== CELL: PROTOCOL ENGINEERING ===== -->
  <g style="color:#56d4dd">
    <text x="392" y="60" class="mono clabel">// protocol.layer</text>
    <text x="392" y="74" class="ctitle" font-size="12">PROTOCOL ENG.</text>

    <rect class="pill" x="392" y="82" width="85" height="18" rx="5"/>
    <text x="434" y="95" class="ptxt">Solana Anchor</text>
    <rect class="pill" x="392" y="108" width="65" height="18" rx="5"/>
    <text x="424" y="121" class="ptxt">Helius RPC</text>
    <rect class="pill" x="465" y="108" width="35" height="18" rx="5"/>
    <text x="482" y="121" class="ptxt">Noir</text>
    <rect class="pill2" x="392" y="134" width="40" height="18" rx="5"/>
    <text x="412" y="147" class="ptxt2">Cairo</text>
    <rect class="pill2" x="440" y="134" width="80" height="18" rx="5"/>
    <text x="480" y="147" class="ptxt2">WebAssembly</text>
  </g>

  <!-- ===== CELL: DISTRIBUTED INFRASTRUCTURE ===== -->
  <g style="color:#79c0ff">
    <text x="574" y="60" class="mono clabel">// distributed.ops</text>
    <text x="574" y="74" class="ctitle" font-size="12">DISTRIBUTED INFRA.</text>

    <rect class="pill" x="574" y="82" width="65" height="18" rx="5"/>
    <text x="606" y="95" class="ptxt">Kubernetes</text>
    <rect class="pill" x="646" y="82" width="50" height="18" rx="5"/>
    <text x="671" y="95" class="ptxt">Docker</text>
    <rect class="pill" x="702" y="82" width="45" height="18" rx="5"/>
    <text x="724" y="95" class="ptxt">Kafka</text>
    <rect class="pill" x="574" y="108" width="65" height="18" rx="5"/>
    <text x="606" y="121" class="ptxt">PostgreSQL</text>
    <rect class="pill" x="646" y="108" width="45" height="18" rx="5"/>
    <text x="668" y="121" class="ptxt">Redis</text>
    <rect class="pill2" x="574" y="134" width="90" height="18" rx="5"/>
    <text x="619" y="147" class="ptxt2">Microservices</text>
    <rect class="pill2" x="672" y="134" width="80" height="18" rx="5"/>
    <text x="712" y="147" class="ptxt2">Pipelines</text>
  </g>

  <!-- ===== CELL: SYSTEMS ENGINEERING ===== -->
  <g style="color:#d2a8ff">
    <text x="28" y="212" class="mono clabel">// bare.metal</text>
    <text x="28" y="226" class="ctitle" font-size="12">SYSTEMS ENG.</text>

    <rect class="pill" x="28" y="234" width="80" height="18" rx="5"/>
    <text x="68" y="247" class="ptxt">Memory Mgmt</text>
    <rect class="pill" x="112" y="234" width="70" height="18" rx="5"/>
    <text x="147" y="247" class="ptxt">Concurrency</text>
    <rect class="pill" x="28" y="260" width="80" height="18" rx="5"/>
    <text x="68" y="273" class="ptxt">Cryptography</text>
    <rect class="pill" x="112" y="260" width="70" height="18" rx="5"/>
    <text x="147" y="273" class="ptxt">MEV Extraction</text>
    <rect class="pill2" x="28" y="286" width="112" height="18" rx="5"/>
    <text x="84" y="299" class="ptxt2">State Optimization</text>
  </g>

  <!-- ===== CELL: NEURAL ARCHITECTURE ===== -->
  <g style="color:#7ee7c7">
    <text x="223" y="212" class="mono clabel">// intelligence.layer</text>
    <text x="223" y="226" class="ctitle" font-size="12">NEURAL ARCHITECTURE</text>

    <rect class="pill" x="223" y="234" width="50" height="18" rx="5"/>
    <text x="248" y="247" class="ptxt">PyTorch</text>
    <rect class="pill" x="278" y="234" width="40" height="18" rx="5"/>
    <text x="298" y="247" class="ptxt">CUDA</text>
    <rect class="pill" x="323" y="234" width="55" height="18" rx="5"/>
    <text x="350" y="247" class="ptxt">TensorRT</text>
    <rect class="pill" x="383" y="234" width="55" height="18" rx="5"/>
    <text x="410" y="247" class="ptxt">Pinecone</text>

    <rect class="pill2" x="223" y="260" width="55" height="18" rx="5"/>
    <text x="250" y="273" class="ptxt2">Bittensor</text>
    <rect class="pill2" x="283" y="260" width="60" height="18" rx="5"/>
    <text x="313" y="273" class="ptxt2">LangGraph</text>
    <rect class="pill2" x="348" y="260" width="50" height="18" rx="5"/>
    <text x="373" y="273" class="ptxt2">AutoGen</text>

    <line x1="223" y1="286" x2="540" y2="286" stroke="#2b323b" stroke-width="1"/>
    <text x="223" y="301" class="note" font-size="7.5">Protocols &amp; ZK &gt; Distributed Inference, ZKML, Swarm Logic</text>
    <text x="223" y="328" class="note" font-size="7.5">FOCUS: Deep Fine Tuning • Multi Agent Orchestration</text>
  </g>

  <!-- ===== CELL: QUANTUM COMPUTING ===== -->
  <g style="color:#c084fc">
    <text x="574" y="212" class="mono clabel">// physics.compute</text>
    <text x="574" y="226" class="ctitle" font-size="12">QUANTUM COMPUTING</text>

    <rect class="pill" x="574" y="234" width="40" height="18" rx="5"/>
    <text x="594" y="247" class="ptxt">Qiskit</text>
    <rect class="pill" x="620" y="234" width="35" height="18" rx="5"/>
    <text x="637" y="247" class="ptxt">Cirq</text>
    <rect class="pill" x="574" y="260" width="65" height="18" rx="5"/>
    <text x="606" y="273" class="ptxt">Gate Algos</text>
    <rect class="pill" x="644" y="260" width="80" height="18" rx="5"/>
    <text x="684" y="273" class="ptxt">Utility Tokens</text>
    <rect class="pill2" x="574" y="286" width="80" height="18" rx="5"/>
    <text x="614" y="299" class="ptxt2">Psychoacoustics</text>
    <rect class="pill2" x="660" y="286" width="80" height="18" rx="5"/>
    <text x="700" y="299" class="ptxt2">Spatial Audio</text>
    <text x="574" y="330" class="note" font-size="7.5">PARADIGM: Circuit Optimization • Frequency Mod</text>
  </g>

  <!-- Footer -->
  <line x1="12" y1="352" x2="768" y2="352" stroke="#30363d" stroke-width="1" opacity="0.6"/>
  <circle cx="360" cy="349" r="2.5" fill="#56d4dd"/>
  <text x="390" y="352" class="mono" font-size="7.5" fill="#6e7681" text-anchor="middle">github.com/bhavy2908 · RUNTIME ENVIRONMENT ACTIVE</text>

  </g>
</svg>
